<svg width="128" height="32" viewBox="0 0 128 32" fill="none" xmlns="http://www.w3.org/2000/svg">
<path fill-rule="evenodd" clip-rule="evenodd" d="M0.102051 0.000244141V16.0397L15.5507 9.95615L0.102051 0.000244141Z" fill="#FCB609"/>
<path fill-rule="evenodd" clip-rule="evenodd" d="M15.1117 31.4511L0.102539 16.0398H30.561L15.1117 31.4511Z" fill="#FCB609" fill-opacity="0.2"/>
<path fill-rule="evenodd" clip-rule="evenodd" d="M15.1116 24.9331L18.3707 28.1922L15.1116 31.4513L11.8525 28.1922L15.1116 24.9331Z" fill="#FCB609" fill-opacity="0.251"/>
<path fill-rule="evenodd" clip-rule="evenodd" d="M30.5606 0.000244141V16.0397L15.1113 9.95615L30.5606 0.000244141Z" fill="#FCB609"/>
<path fill-rule="evenodd" clip-rule="evenodd" d="M0.000244141 16.0399L15.1114 24.933L30.5607 16.0399L15.2805 9.78442L0.000244141 16.0399Z" fill="#FCB609"/>
<path d="M55.4421 13.1734C55.4421 13.9502 55.2548 14.6784 54.8803 15.3581C54.5196 16.0378 53.944 16.5857 53.1533 17.0019C52.3765 17.418 51.3916 17.6261 50.1987 17.6261H47.7642V23.2024H44.8512V8.67901H50.1987C51.3223 8.67901 52.2794 8.87321 53.0701 9.26161C53.8607 9.65001 54.4503 10.1841 54.8387 10.8638C55.2409 11.5435 55.4421 12.3133 55.4421 13.1734ZM50.0738 15.2749C50.8784 15.2749 51.4748 15.0945 51.8632 14.7339C52.2516 14.3594 52.4458 13.8392 52.4458 13.1734C52.4458 11.7585 51.6552 11.051 50.0738 11.051H47.7642V15.2749H50.0738ZM65.0008 23.2024L61.7965 17.5429H60.4233V23.2024H57.5103V8.67901H62.9617C64.0853 8.67901 65.0424 8.88015 65.8331 9.28242C66.6238 9.67082 67.2133 10.2049 67.6017 10.8846C68.004 11.5504 68.2051 12.2995 68.2051 13.1317C68.2051 14.0889 67.9277 14.9558 67.3728 15.7326C66.818 16.4956 65.9926 17.0227 64.8968 17.314L68.3716 23.2024H65.0008ZM60.4233 15.3581H62.8577C63.6484 15.3581 64.2379 15.1708 64.6263 14.7963C65.0147 14.4079 65.2089 13.8739 65.2089 13.1942C65.2089 12.5283 65.0147 12.0151 64.6263 11.6544C64.2379 11.2799 63.6484 11.0926 62.8577 11.0926H60.4233V15.3581ZM77.5813 23.348C76.2219 23.348 74.9735 23.029 73.8361 22.3909C72.6986 21.7528 71.797 20.872 71.1311 19.7484C70.4653 18.611 70.1324 17.3278 70.1324 15.8991C70.1324 14.4842 70.4653 13.215 71.1311 12.0914C71.797 10.9539 72.6986 10.0662 73.8361 9.42807C74.9735 8.78998 76.2219 8.47094 77.5813 8.47094C78.9546 8.47094 80.203 8.78998 81.3266 9.42807C82.4641 10.0662 83.3588 10.9539 84.0107 12.0914C84.6766 13.215 85.0095 14.4842 85.0095 15.8991C85.0095 17.3278 84.6766 18.611 84.0107 19.7484C83.3588 20.872 82.4641 21.7528 81.3266 22.3909C80.1892 23.029 78.9407 23.348 77.5813 23.348ZM77.5813 20.7472C78.4552 20.7472 79.2251 20.553 79.8909 20.1646C80.5568 19.7623 81.0769 19.1936 81.4515 18.4584C81.826 17.7232 82.0133 16.8701 82.0133 15.8991C82.0133 14.9281 81.826 14.0819 81.4515 13.3606C81.0769 12.6254 80.5568 12.0636 79.8909 11.6752C79.2251 11.2868 78.4552 11.0926 77.5813 11.0926C76.7074 11.0926 75.9306 11.2868 75.2509 11.6752C74.5851 12.0636 74.0649 12.6254 73.6904 13.3606C73.3159 14.0819 73.1286 14.9281 73.1286 15.8991C73.1286 16.8701 73.3159 17.7232 73.6904 18.4584C74.0649 19.1936 74.5851 19.7623 75.2509 20.1646C75.9306 20.553 76.7074 20.7472 77.5813 20.7472ZM92.2536 8.67901C93.7795 8.67901 95.1181 8.97725 96.2694 9.57372C97.4346 10.1702 98.3293 11.0233 98.9535 12.133C99.5916 13.2288 99.9107 14.505 99.9107 15.9615C99.9107 17.418 99.5916 18.6942 98.9535 19.79C98.3293 20.872 97.4346 21.7112 96.2694 22.3077C95.1181 22.9042 93.7795 23.2024 92.2536 23.2024H87.1767V8.67901H92.2536ZM92.1496 20.7263C93.6754 20.7263 94.8545 20.3102 95.6868 19.4779C96.5191 18.6456 96.9352 17.4735 96.9352 15.9615C96.9352 14.4495 96.5191 13.2705 95.6868 12.4243C94.8545 11.5643 93.6754 11.1343 92.1496 11.1343H90.0897V20.7263H92.1496ZM105.004 8.67901V23.2024H102.091V8.67901H105.004ZM110.795 20.8928H115.581V23.2024H107.882V8.67901H110.795V20.8928ZM120.345 11.0302V14.6715H125.235V16.9811H120.345V20.8304H125.859V23.2024H117.432V8.6582H125.859V11.0302H120.345Z" fill="#FCB609"/>
</svg>
