<svg width="264" height="61" viewBox="0 0 264 61" fill="none" xmlns="http://www.w3.org/2000/svg">
<mask id="mask0_14_599" style="mask-type:luminance" maskUnits="userSpaceOnUse" x="0" y="0" width="264" height="61">
<rect y="0.34375" width="263.419" height="60.3329" fill="white"/>
</mask>
<g mask="url(#mask0_14_599)">
<path fill-rule="evenodd" clip-rule="evenodd" d="M0.195801 0.343765V31.1127L29.8315 19.4425L0.195801 0.343765Z" fill="white"/>
<path fill-rule="evenodd" clip-rule="evenodd" d="M28.9884 60.6767L0.195801 31.1126H58.6252L28.9884 60.6767Z" fill="white" fill-opacity="0.2"/>
<path fill-rule="evenodd" clip-rule="evenodd" d="M28.9883 48.1725L35.2403 54.4245L28.9883 60.6765L22.7363 54.4245L28.9883 48.1725Z" fill="white" fill-opacity="0.25098"/>
<path fill-rule="evenodd" clip-rule="evenodd" d="M58.6251 0.343765V31.1127L28.9883 19.4425L58.6251 0.343765Z" fill="white"/>
<path fill-rule="evenodd" clip-rule="evenodd" d="M0 31.1126L28.9883 48.1725L58.6251 31.1126L29.3126 19.1125L0 31.1126Z" fill="white" fill-opacity="0.8"/>
</g>
<path d="M113.444 23.8305C113.444 25.5665 113.046 27.1602 112.249 28.6116C111.452 30.0346 110.228 31.1872 108.578 32.0694C106.927 32.9517 104.878 33.3928 102.43 33.3928H97.9053V44.1504H90.6055V14.1828H102.43C104.821 14.1828 106.842 14.5954 108.492 15.4208C110.143 16.2461 111.381 17.3844 112.206 18.8359C113.031 20.2873 113.444 21.9522 113.444 23.8305ZM101.875 27.5871C103.27 27.5871 104.309 27.2598 104.992 26.6053C105.675 25.9507 106.016 25.0258 106.016 23.8305C106.016 22.6352 105.675 21.7103 104.992 21.0557C104.309 20.4011 103.27 20.0739 101.875 20.0739H97.9053V27.5871H101.875ZM132.527 44.1504L126.294 32.8378H124.544V44.1504H117.244V14.1828H129.496C131.858 14.1828 133.865 14.5954 135.515 15.4208C137.194 16.2461 138.447 17.3844 139.272 18.8359C140.097 20.2588 140.51 21.8526 140.51 23.617C140.51 25.6092 139.941 27.3879 138.802 28.9531C137.692 30.5184 136.042 31.6283 133.85 32.2829L140.766 44.1504H132.527ZM124.544 27.6725H129.069C130.407 27.6725 131.403 27.3452 132.057 26.6906C132.74 26.0361 133.082 25.1111 133.082 23.9159C133.082 22.7775 132.74 21.881 132.057 21.2265C131.403 20.5719 130.407 20.2446 129.069 20.2446H124.544V27.6725ZM159.265 44.4492C156.447 44.4492 153.858 43.7946 151.496 42.4855C149.162 41.1764 147.298 39.355 145.903 37.0213C144.537 34.6592 143.854 32.0125 143.854 29.0812C143.854 26.1499 144.537 23.5174 145.903 21.1838C147.298 18.8501 149.162 17.0287 151.496 15.7196C153.858 14.4105 156.447 13.7559 159.265 13.7559C162.082 13.7559 164.658 14.4105 166.992 15.7196C169.354 17.0287 171.204 18.8501 172.541 21.1838C173.907 23.5174 174.59 26.1499 174.59 29.0812C174.59 32.0125 173.907 34.6592 172.541 37.0213C171.175 39.355 169.325 41.1764 166.992 42.4855C164.658 43.7946 162.082 44.4492 159.265 44.4492ZM159.265 37.7897C161.656 37.7897 163.562 36.9929 164.985 35.3992C166.437 33.8054 167.162 31.6995 167.162 29.0812C167.162 26.4345 166.437 24.3285 164.985 22.7632C163.562 21.1695 161.656 20.3727 159.265 20.3727C156.846 20.3727 154.911 21.1553 153.459 22.7206C152.036 24.2858 151.325 26.406 151.325 29.0812C151.325 31.7279 152.036 33.8481 153.459 35.4419C154.911 37.0071 156.846 37.7897 159.265 37.7897ZM189.879 14.1828C193.038 14.1828 195.798 14.8089 198.16 16.0611C200.522 17.3133 202.344 19.0778 203.624 21.3545C204.934 23.6028 205.588 26.2068 205.588 29.1666C205.588 32.0979 204.934 34.7019 203.624 36.9787C202.344 39.2554 200.508 41.0199 198.118 42.2721C195.755 43.5243 193.009 44.1504 189.879 44.1504H178.651V14.1828H189.879ZM189.409 37.8324C192.17 37.8324 194.318 37.0783 195.855 35.5699C197.392 34.0616 198.16 31.9271 198.16 29.1666C198.16 26.406 197.392 24.2574 195.855 22.7206C194.318 21.1838 192.17 20.4154 189.409 20.4154H185.951V37.8324H189.409ZM216.967 14.1828V44.1504H209.668V14.1828H216.967ZM229.557 38.5155H239.12V44.1504H222.257V14.1828H229.557V38.5155ZM249.901 20.0312V26.093H259.677V31.7279H249.901V38.302H260.958V44.1504H242.601V14.1828H260.958V20.0312H249.901Z" fill="white"/>
</svg>
